<svg width="115" height="41" viewBox="0 0 115 41" fill="none" xmlns="http://www.w3.org/2000/svg">
<g clip-path="url(#clip0_1090_24718)">
<path d="M39.1096 36.9682C37.9015 36.9682 36.8729 36.7843 36.0238 36.4167C35.2226 36.0848 34.5148 35.5618 33.9622 34.8934C33.4262 34.2247 33.037 33.4507 32.8197 32.6216C32.5774 31.7093 32.4582 30.7687 32.4651 29.8247V18.3743H34.251V29.5884C34.2335 30.4639 34.3532 31.3367 34.6055 32.1752C34.8058 32.8366 35.1411 33.4492 35.5905 33.9742C36.005 34.4433 36.5279 34.8039 37.1136 35.0248C38.4053 35.48 39.8138 35.48 41.1055 35.0248C41.6912 34.8038 42.2141 34.4431 42.6288 33.9742C43.078 33.4492 43.4134 32.8366 43.6136 32.1752C43.8659 31.3367 43.9856 30.4639 43.9681 29.5884V18.3743H45.754V29.8247C45.7609 30.7686 45.6417 31.7093 45.3995 32.6216C45.1822 33.4507 44.793 34.2247 44.257 34.8934C43.7043 35.5617 42.9966 36.0846 42.1955 36.4167C41.346 36.7843 40.3174 36.9681 39.1096 36.9682Z" fill="#D9D9D9"/>
<path d="M51.6133 23.8107C51.9107 23.5834 52.3879 23.3427 53.0446 23.0885C53.7893 22.8197 54.5772 22.6906 55.3688 22.7077C56.2677 22.691 57.1594 22.8703 57.982 23.2329C58.728 23.5714 59.3879 24.0742 59.9122 24.7037C60.4546 25.3661 60.8607 26.1292 61.1072 26.9491C61.3868 27.8728 61.5241 28.8336 61.5143 29.7986C61.5298 30.8088 61.3652 31.8137 61.0284 32.7662C60.7321 33.5966 60.2672 34.3567 59.6628 34.9985C59.0727 35.6138 58.3557 36.0933 57.5617 36.4036C56.6949 36.7371 55.7723 36.902 54.8436 36.8894C53.6355 36.8894 52.6375 36.8107 51.8496 36.6531C51.1916 36.5294 50.5424 36.3627 49.9062 36.1541V16.5097L51.6133 16.1946V23.8107ZM51.6133 34.9723C51.9956 35.0863 52.3864 35.1697 52.7819 35.2218C53.4566 35.3105 54.1369 35.35 54.8173 35.34C56.288 35.34 57.4698 34.8629 58.3628 33.9087C59.2557 32.9546 59.7021 31.5845 59.7021 29.7986C59.7058 29.0784 59.6264 28.3602 59.4658 27.6582C59.3273 27.0282 59.0687 26.4307 58.7042 25.8985C58.3479 25.3946 57.8748 24.9846 57.3253 24.7037C56.7562 24.4062 56.0515 24.2574 55.2112 24.2572C54.823 24.2557 54.4356 24.2953 54.0557 24.3754C53.7068 24.4487 53.3643 24.5497 53.0315 24.6774C52.7455 24.7861 52.4689 24.9179 52.2042 25.0713C51.9994 25.1905 51.8021 25.3221 51.6133 25.4652V34.9723Z" fill="#D9D9D9"/>
<path d="M75.2796 36.1013C74.7716 36.2417 74.0887 36.3993 73.231 36.5741C72.1917 36.7649 71.1361 36.8529 70.0796 36.8367C69.0639 36.8367 68.2147 36.6879 67.5321 36.3902C66.8821 36.1179 66.3126 35.684 65.8775 35.1297C65.4379 34.5456 65.129 33.8738 64.9715 33.16C64.7804 32.3245 64.6879 31.4695 64.6958 30.6125V22.9963H66.4028V30.061C66.3897 30.8801 66.46 31.6985 66.6129 32.5034C66.7528 33.169 66.9804 33.7074 67.2957 34.1186C67.608 34.5279 68.0321 34.8381 68.5169 35.0115C69.1045 35.2094 69.7223 35.3027 70.3422 35.2872C71.0448 35.2941 71.7469 35.2502 72.4431 35.1559C73.0382 35.0685 73.4147 34.9897 73.5724 34.9196V22.9963H75.2795L75.2796 36.1013Z" fill="#D9D9D9"/>
<path d="M79.3125 23.4692C79.8201 23.3293 80.5029 23.1717 81.3609 22.9964C82.4003 22.8055 83.4559 22.7176 84.5125 22.7338C85.5453 22.7338 86.4076 22.8827 87.0993 23.1803C87.7544 23.45 88.3256 23.8897 88.7538 24.454C89.1831 25.0458 89.483 25.7214 89.6337 26.4369C89.8156 27.2736 89.9036 28.128 89.8963 28.9843V36.5742H88.1892V29.5359C88.2014 28.7173 88.1355 27.8994 87.9922 27.0934C87.8942 26.5094 87.6701 25.9538 87.3357 25.4651C87.0335 25.0482 86.6124 24.7324 86.1276 24.559C85.6286 24.3753 85.0027 24.2834 84.2499 24.2833C83.5516 24.2763 82.8538 24.3202 82.162 24.4146C81.5751 24.5024 81.1943 24.5812 81.0195 24.651V36.5742H79.3125V23.4692Z" fill="#D9D9D9"/>
<path d="M95.4191 22.9962H100.829V24.4407H95.4191V31.6629C95.4035 32.2947 95.4698 32.9259 95.6161 33.5407C95.7113 33.9529 95.905 34.3359 96.1807 34.6568C96.42 34.9162 96.7307 35.099 97.0737 35.1821C97.452 35.273 97.8401 35.3171 98.2292 35.3133C98.9469 35.3133 99.5247 35.2302 99.9625 35.0639C100.315 34.9364 100.657 34.7828 100.987 34.6043L101.407 36.0225C101.162 36.1801 100.733 36.3595 100.12 36.5608C99.475 36.767 98.8013 36.869 98.1241 36.8629C97.2837 36.8629 96.579 36.7535 96.01 36.5346C95.47 36.3371 94.9966 35.9912 94.6443 35.5367C94.2816 35.042 94.0347 34.472 93.9221 33.8689C93.7714 33.0903 93.701 32.2983 93.7121 31.5053V19.0044L95.4191 18.6892V22.9962Z" fill="#D9D9D9"/>
<path d="M114.065 36.1013C113.557 36.2417 112.874 36.3993 112.016 36.5741C110.977 36.7649 109.921 36.8529 108.865 36.8367C107.849 36.8367 107 36.6879 106.317 36.3902C105.667 36.1179 105.098 35.684 104.663 35.1297C104.223 34.5456 103.914 33.8738 103.757 33.16C103.566 32.3245 103.473 31.4695 103.481 30.6125V22.9963H105.188V30.061C105.175 30.8801 105.245 31.6985 105.398 32.5034C105.538 33.169 105.766 33.7074 106.081 34.1186C106.393 34.5279 106.817 34.8381 107.302 35.0115C107.89 35.2094 108.507 35.3027 109.127 35.2872C109.83 35.2941 110.532 35.2502 111.228 35.1559C111.823 35.0685 112.2 34.9897 112.358 34.9196V22.9963H114.065V36.1013Z" fill="#D9D9D9"/>
<path d="M26.2731 0.0319824H0.226562V40.1459H26.2731V0.0319824Z" fill="#D9D9D9"/>
<path d="M5.90531 29.2427C7.41495 29.2427 8.63875 28.0189 8.63875 26.5093C8.63875 24.9997 7.41495 23.7759 5.90531 23.7759C4.39568 23.7759 3.17188 24.9997 3.17188 26.5093C3.17188 28.0189 4.39568 29.2427 5.90531 29.2427Z" fill="white"/>
<path d="M17.292 23.2489C18.8017 23.2489 20.0255 22.0251 20.0255 20.5154C20.0255 19.0058 18.8017 17.782 17.292 17.782C15.7824 17.782 14.5586 19.0058 14.5586 20.5154C14.5586 22.0251 15.7824 23.2489 17.292 23.2489Z" fill="white"/>
<path d="M12.0721 33.5438C11.106 33.3395 10.1974 32.9229 9.41225 32.3241C8.62708 31.7252 7.98496 30.9592 7.53243 30.0815C6.80097 30.4136 5.98541 30.5139 5.19531 30.3688C5.74179 31.72 6.61181 32.9163 7.72891 33.8526C8.84601 34.7888 10.176 35.4363 11.6019 35.7382C12.2398 35.8749 12.8906 35.9418 13.5429 35.9379C13.0411 35.28 12.7609 34.4798 12.7426 33.6526C12.5175 33.6276 12.2926 33.591 12.0721 33.5438Z" fill="white"/>
<path d="M16.6748 36.2928C18.1845 36.2928 19.4083 35.069 19.4083 33.5594C19.4083 32.0497 18.1845 30.8259 16.6748 30.8259C15.1652 30.8259 13.9414 32.0497 13.9414 33.5594C13.9414 35.069 15.1652 36.2928 16.6748 36.2928Z" fill="white"/>
<path d="M20.4799 32.555C21.6516 31.0768 22.326 29.2659 22.4065 27.3814C22.487 25.4968 21.9695 23.635 20.928 22.0623C20.6123 22.8057 20.0757 23.4341 19.3909 23.8624C19.9377 24.8948 20.2052 26.0521 20.1668 27.2196C20.1283 28.3872 19.7854 29.5244 19.1719 30.5186C19.8118 31.0424 20.2696 31.7552 20.4799 32.555Z" fill="white"/>
<path d="M5.69531 22.5893C5.76469 22.5855 5.83409 22.5836 5.90354 22.5837C6.63592 22.5842 7.3537 22.7886 7.97648 23.174C8.57904 22.3036 9.38019 21.5893 10.3136 21.0901C11.2471 20.5908 12.286 20.3211 13.3444 20.3031C13.3886 19.497 13.6779 18.7235 14.1737 18.0863C12.4793 17.9584 10.7834 18.3135 9.28268 19.1106C7.78199 19.9076 6.53809 21.1138 5.69531 22.5893Z" fill="white"/>
</g>
<defs>
<clipPath id="clip0_1090_24718">
<rect width="113.838" height="40.1139" fill="white" transform="translate(0.226562 0.0319824)"/>
</clipPath>
</defs>
</svg>
