<svg width="161" height="162" viewBox="0 0 161 162" fill="none" xmlns="http://www.w3.org/2000/svg">
<path d="M161.5 0.5V161.5H100.921L101.355 160.75C103.355 157.294 104.5 153.281 104.5 149C104.5 136.021 93.9787 125.5 81 125.5C68.0213 125.5 57.5 136.021 57.5 149C57.5 153.281 58.6451 157.294 60.6445 160.75L61.0791 161.5H0.5V100.921L1.25 101.355C4.70621 103.355 8.71867 104.5 13 104.5C25.9787 104.5 36.5 93.9787 36.5 81C36.5 68.0213 25.9787 57.5 13 57.5C8.98644 57.5 5.20941 58.5063 1.90527 60.2793L1.25 60.6436L0.5 61.0781V0.5H161.5Z" fill="#202020" stroke="#474747"/>
<g filter="url(#filter0_d_1129_27943)">
<path d="M62.2344 71.595L71.5911 62.2383M71.5911 62.2383L80.9479 71.595M71.5911 62.2383V90.3086M99.6614 90.3086L90.3046 99.6653M90.3046 99.6653L80.9479 90.3086M90.3046 99.6653V71.595" stroke="#474747" stroke-width="1.70123" stroke-linecap="round" stroke-linejoin="round"/>
</g>
<defs>
<filter id="filter0_d_1129_27943" x="52" y="56" width="57.9023" height="57.9023" filterUnits="userSpaceOnUse" color-interpolation-filters="sRGB">
<feFlood flood-opacity="0" result="BackgroundImageFix"/>
<feColorMatrix in="SourceAlpha" type="matrix" values="0 0 0 0 0 0 0 0 0 0 0 0 0 0 0 0 0 0 127 0" result="hardAlpha"/>
<feOffset dy="4"/>
<feGaussianBlur stdDeviation="2"/>
<feComposite in2="hardAlpha" operator="out"/>
<feColorMatrix type="matrix" values="0 0 0 0 0 0 0 0 0 0 0 0 0 0 0 0 0 0 0.25 0"/>
<feBlend mode="normal" in2="BackgroundImageFix" result="effect1_dropShadow_1129_27943"/>
<feBlend mode="normal" in="SourceGraphic" in2="effect1_dropShadow_1129_27943" result="shape"/>
</filter>
</defs>
</svg>
